<?xml version="1.0" standalone="no"?>
<!DOCTYPE svg PUBLIC "-//W3C//DTD SVG 20010904//EN"
 "http://www.w3.org/TR/2001/REC-SVG-20010904/DTD/svg10.dtd">
<svg version="1.0" xmlns="http://www.w3.org/2000/svg"
 width="192.000000pt" height="192.000000pt" viewBox="0 0 192.000000 192.000000"
 preserveAspectRatio="xMidYMid meet">

<g transform="translate(0.000000,192.000000) scale(0.100000,-0.100000)"
fill="#000000" stroke="none">
<path d="M630 1822 c0 -18 145 -147 235 -208 50 -34 136 -87 193 -119 56 -32
102 -59 102 -61 0 -1 -4 -14 -10 -28 -12 -32 -38 -34 -49 -3 -5 14 -47 44
-112 81 -128 72 -324 200 -361 234 -16 15 -28 37 -29 51 0 23 -1 22 -12 -9 -7
-20 -22 -39 -35 -45 -21 -9 -23 -15 -20 -56 3 -27 15 -60 28 -79 27 -38 151
-121 263 -175 86 -42 106 -60 89 -77 -6 -6 -19 -7 -29 -3 -10 4 -44 9 -75 11
-108 7 -228 72 -228 123 0 12 -4 21 -10 21 -5 0 -10 -10 -10 -23 0 -28 40 -67
97 -96 l43 -21 -3 -53 c-1 -37 3 -61 16 -80 26 -40 90 -76 149 -85 38 -5 54
-12 56 -24 4 -23 -96 -100 -156 -120 -119 -40 -347 -121 -352 -125 -3 -3 5
-12 16 -22 12 -9 24 -27 28 -38 8 -26 27 -35 91 -42 50 -6 50 -6 55 -46 3 -22
9 -45 13 -52 14 -22 73 -26 121 -8 48 18 66 14 66 -14 0 -21 36 -56 66 -65 12
-4 40 1 63 10 35 14 42 22 51 58 14 55 100 288 112 304 6 6 23 12 38 12 55 0
188 47 246 86 78 54 157 142 189 211 75 163 76 164 139 194 57 27 58 28 30 34
-16 4 -59 20 -95 36 -77 34 -89 35 -160 12 -38 -13 -69 -33 -107 -70 -59 -57
-51 -57 -150 -12 -181 82 -425 235 -528 331 -35 33 -64 56 -64 50z m85 -217
c62 -48 77 -55 93 -46 15 8 23 7 33 -5 10 -13 10 -17 -2 -25 -17 -11 -16 -12
98 -75 98 -54 113 -70 57 -60 -46 7 -237 101 -333 164 -73 47 -91 72 -91 126
0 47 8 49 41 11 16 -18 63 -59 104 -90z m902 -120 l37 -16 -29 -18 c-35 -21
-72 -62 -135 -149 -25 -34 -48 -62 -52 -62 -15 0 -8 61 12 100 19 37 55 70 93
83 27 10 33 38 12 53 -28 21 -36 18 -89 -31 -51 -46 -96 -62 -77 -27 37 69
146 101 228 67z m-509 -162 c-27 -2 -69 -2 -95 0 -27 2 -5 3 47 3 52 0 74 -1
48 -3z m-193 -42 c65 -5 80 -9 83 -23 3 -16 -8 -18 -117 -18 -124 0 -151 8
-151 47 0 13 8 15 53 8 28 -4 88 -10 132 -14z m295 -26 c0 -12 -15 -15 -75
-15 -60 0 -75 3 -75 15 0 12 15 15 75 15 60 0 75 -3 75 -15z m149 -1 c8 -7 -3
-12 -41 -19 -35 -7 -38 -5 -38 15 0 20 3 22 38 15 20 -4 39 -9 41 -11z m-99
-73 c0 -17 -32 -20 -230 -23 -173 -3 -198 -1 -220 15 -24 16 -16 17 213 17
140 0 237 -4 237 -9z m133 -3 c2 -7 -28 -36 -67 -65 -55 -41 -72 -49 -75 -36
-2 10 18 35 50 64 54 48 84 60 92 37z m-273 -168 c-8 -15 -21 -20 -56 -20 -25
0 -55 6 -67 12 -21 12 -21 13 13 19 19 3 54 7 78 8 40 1 42 0 32 -19z m-162
-32 c13 -13 -1 -38 -22 -38 -6 -1 -29 -26 -51 -56 -60 -84 -167 -192 -199
-200 -34 -8 -53 8 -40 34 8 17 283 270 295 271 3 1 10 -4 17 -11z m-142 -17
c-20 -31 -278 -173 -301 -165 -19 8 -28 35 -15 48 9 10 291 122 313 125 5 1 6
-3 3 -8z m184 -97 c0 -3 -17 -46 -37 -95 -27 -62 -43 -89 -55 -89 -9 0 -20 -5
-24 -11 -5 -8 -9 -7 -14 1 -9 14 12 57 78 163 20 31 52 51 52 31z m-143 -226
c-3 -7 -5 -2 -5 12 0 14 2 19 5 13 2 -7 2 -19 0 -25z"/>
<path d="M310 505 l0 -125 25 0 25 0 0 125 0 125 -25 0 -25 0 0 -125z"/>
<path d="M1840 588 l0 -43 -54 3 c-70 5 -96 -17 -96 -82 0 -36 5 -48 26 -65
32 -25 76 -27 109 -5 23 15 25 15 25 0 0 -9 8 -16 20 -16 19 0 20 7 20 125 l0
125 -25 0 c-23 0 -25 -4 -25 -42z m-12 -80 c7 -7 12 -24 12 -40 0 -30 -23 -48
-64 -48 -24 0 -26 3 -26 43 0 24 3 47 7 50 11 11 58 8 71 -5z"/>
<path d="M30 500 l0 -120 93 0 c85 0 96 2 115 23 22 24 30 81 13 91 -5 3 -7
24 -4 46 9 67 -11 80 -124 80 l-93 0 0 -120z m165 55 c0 -30 -1 -30 -57 -33
l-58 -3 0 36 0 36 58 -3 c56 -3 57 -3 57 -33z m10 -100 c0 -30 0 -30 -62 -33
l-63 -3 0 36 0 36 63 -3 c62 -3 62 -3 62 -33z"/>
<path d="M1020 500 l0 -120 89 0 c74 0 92 3 115 21 30 24 34 63 9 91 -13 14
-14 21 -5 30 18 18 14 63 -6 81 -15 13 -39 17 -110 17 l-92 0 0 -120z m155 55
c0 -29 -2 -30 -52 -33 l-53 -3 0 36 0 36 53 -3 c50 -3 52 -4 52 -33z m18 -87
c19 -29 -9 -48 -69 -48 l-54 0 0 35 0 36 56 -3 c40 -2 60 -8 67 -20z"/>
<path d="M410 487 c0 -53 4 -67 23 -85 27 -26 79 -29 97 -7 16 19 30 19 30 -1
0 -10 7 -14 23 -12 20 3 22 9 25 86 3 82 3 82 -23 82 -23 0 -25 -4 -25 -43 0
-51 -33 -91 -72 -85 -21 3 -23 9 -26 66 -3 58 -4 62 -27 62 -24 0 -25 -3 -25
-63z"/>
<path d="M672 527 c-33 -35 -30 -99 4 -126 48 -38 174 -20 174 25 0 16 -36 19
-45 4 -3 -5 -26 -10 -51 -10 -37 0 -44 3 -44 20 0 18 7 20 70 20 l70 0 0 31
c0 44 -24 58 -96 59 -51 0 -64 -4 -82 -23z m126 -29 c3 -15 -4 -18 -42 -18
-32 0 -46 4 -46 13 0 22 12 28 50 25 24 -2 36 -9 38 -20z"/>
<path d="M1290 487 c0 -53 4 -67 23 -85 28 -26 73 -28 100 -5 18 17 18 16 15
-17 -3 -32 -6 -35 -40 -38 -22 -2 -38 1 -38 7 0 6 -11 11 -25 11 -30 0 -34
-25 -6 -40 11 -5 44 -10 74 -10 79 0 87 12 87 138 l0 102 -25 0 c-23 0 -25 -3
-25 -48 0 -56 -23 -86 -62 -80 -21 3 -23 9 -26 66 -3 58 -4 62 -27 62 -24 0
-25 -3 -25 -63z"/>
<path d="M1540 465 c0 -84 0 -85 25 -85 24 0 25 3 25 54 0 45 4 58 22 70 12 9
33 16 45 16 14 0 23 6 23 15 0 19 -60 21 -79 3 -11 -10 -14 -10 -18 0 -3 6
-13 12 -24 12 -17 0 -19 -8 -19 -85z"/>
</g>
</svg>
